<?xml version="1.0" encoding="iso-8859-1"?>
<!-- Uploaded to: SVG Repo, www.svgrepo.com, Generator: SVG Repo Mixer Tools -->
<svg version="1.1" id="Layer_1" xmlns="http://www.w3.org/2000/svg" xmlns:xlink="http://www.w3.org/1999/xlink" 
	 viewBox="0 0 512 512" xml:space="preserve">
<circle style="fill:#E5E5E5;" cx="256" cy="256" r="256"/>
<rect x="167.92" y="456" style="fill:#CCCCCC;" width="176" height="8"/>
<polygon style="fill:#ADADAD;" points="311.96,456.008 199.96,456.008 207.96,400.008 303.96,400.008 "/>
<path style="fill:#CCCCCC;" d="M447.96,360.008v32c0,4.4-3.6,8-8,8h-368c-4.4,0-8-3.6-8-8v-32H447.96z"/>
<rect id="SVGCleanerId_0" x="80" y="120" style="fill:#FFFFFF;" width="352" height="224"/>
<path style="fill:#3B3B3B;" d="M439.96,104.008h-368c-4.4,0-8,3.6-8,8v248h384v-248C447.96,107.608,444.36,104.008,439.96,104.008z
	 M431.96,344.008h-352v-224h352V344.008z"/>
<g>
	<rect id="SVGCleanerId_0_1_" x="80" y="120" style="fill:#FFFFFF;" width="352" height="224"/>
</g>
<g>
	<rect x="135.92" y="192" style="fill:#CCCCCC;" width="112" height="8"/>
	<rect x="135.92" y="168" style="fill:#CCCCCC;" width="112" height="8"/>
	<rect x="135.92" y="144" style="fill:#CCCCCC;" width="112" height="8"/>
	<rect x="272" y="144" style="fill:#CCCCCC;" width="104" height="56"/>
</g>
<rect x="135.92" y="224" style="fill:#A2DFE9;" width="240" height="96"/>
</svg>